<?xml version="1.0" encoding="utf-8"?>
<!-- Generator: Adobe Illustrator 21.0.0, SVG Export Plug-In . SVG Version: 6.00 Build 0)  -->
<svg version="1.1" id="图层_1" xmlns="http://www.w3.org/2000/svg" xmlns:xlink="http://www.w3.org/1999/xlink" x="0px" y="0px"
	 viewBox="0 0 24 24" style="enable-background:new 0 0 24 24;" xml:space="preserve">
<style type="text/css">
	.st0{clip-path:url(#SVGID_2_);fill:#C8C7CC;}
</style>
<g>
	<defs>
		<rect id="SVGID_1_" width="24" height="24"/>
	</defs>
	<clipPath id="SVGID_2_">
		<use xlink:href="#SVGID_1_"  style="overflow:visible;"/>
	</clipPath>
	<path class="st0" d="M12.8,15.7L12.8,15.7c-0.4,0.4-1,0.4-1.4,0l-6-6C5,9.3,5,8.7,5.4,8.3l0,0c0.4-0.4,1-0.4,1.4,0l6,6
		C13.2,14.7,13.2,15.3,12.8,15.7"/>
	<path class="st0" d="M18.8,8.3L18.8,8.3c0.4,0.4,0.4,1,0,1.4l-6,6c-0.4,0.4-1,0.4-1.4,0l0,0c-0.4-0.4-0.4-1,0-1.4l6-6
		C17.8,7.9,18.4,7.9,18.8,8.3"/>
</g>
</svg>
